<svg height="512pt" viewBox="0 -106 512.00025 512" width="512pt" xmlns="http://www.w3.org/2000/svg"><path d="m509.804688 269.695312c-2.929688-2.925781-7.679688-2.925781-10.609376 0l-10.246093 10.25-114.949219-248.097656v-24.347656c0-4.140625-3.359375-7.5-7.5-7.5s-7.5 3.359375-7.5 7.5v18.5h-21c-4.140625 0-7.5 3.359375-7.5 7.5s3.359375 7.5 7.5 7.5h23.707031l113.050781 244h-189.652343l4.699219-4.695312c2.929687-2.929688 2.929687-7.679688 0-10.609376-2.929688-2.925781-7.679688-2.925781-10.605469 0l-10.238281 10.238282-110.277344-238.933594h144.316406c4.140625 0 7.5-3.359375 7.5-7.5s-3.359375-7.5-7.5-7.5h-149v-18.5c0-4.140625-3.359375-7.5-7.5-7.5s-7.5 3.359375-7.5 7.5v24.328125l-116.253906 247.8125-9.941406-9.945313c-2.929688-2.925781-7.679688-2.925781-10.609376 0-2.925781 2.929688-2.925781 7.679688 0 10.609376l17.5 17.5c1.390626 1.386718 3.339844 2.195312 5.304688 2.195312h37.832031c4.144531 0 7.5-3.359375 7.5-7.5s-3.355469-7.5-7.5-7.5h-26.027343l102.195312-217.851562v217.851562h-41.105469c-4.140625 0-7.5 3.359375-7.5 7.5s3.359375 7.5 7.5 7.5h388.605469c.070312 0 .144531-.011719.214844-.015625.09375.003906.191406.015625.285156.015625 1.917969 0 3.839844-.730469 5.304688-2.195312l17.5-17.5c2.929687-2.929688 2.929687-7.679688 0-10.609376-2.929688-2.925781 2.929687 2.929688 0 0zm-266.558594-9.542968c-5.300782-3.292969-10.691406-5.742188-16.210938-7.375-5.667968-1.675782-11.519531-2.519532-17.71875-2.519532-6.1875 0-12.71875.839844-19.75 2.527344l-26.960937-166.679687zm-89.246094-133.3125 22.097656 136.609375c.347656 2.148437 1.609375 4.039062 3.460938 5.183593 1.851562 1.144532 4.109375 1.425782 6.1875.773438 22.980468-7.214844 42.386718-6.875 64.378906 15.59375h-96.125zm0 0"/><path d="m184.671875 59.472656c-1.375 2.164063-1.554687 4.882813-.464844 7.203125l65 139c1.234375 2.640625 3.882813 4.324219 6.792969 4.324219h157c2.558594 0 4.9375-1.300781 6.316406-3.453125 1.378906-2.15625 1.566406-4.859375.496094-7.183594l-64-139c-1.226562-2.660156-3.882812-4.363281-6.8125-4.363281h-158c-2.5625 0-4.953125 1.308594-6.328125 3.472656zm159.523437 11.527344 57.09375 124h-140.515624l-57.988282-124zm0 0"/><path d="m349.378906 127.441406c1.367188-2.210937 1.492188-4.96875.328125-7.296875l-15-30c-1.269531-2.539062-3.867187-4.144531-6.707031-4.144531h-89.5c-2.582031 0-4.980469 1.328125-6.355469 3.515625-1.371093 2.183594-1.519531 4.921875-.398437 7.25l14.5 30c1.253906 2.589844 3.875 4.234375 6.753906 4.234375h90c2.597656 0 5.011719-1.347656 6.378906-3.558594zm-91.675781-11.441406-7.25-15h72.910156l7.5 15zm0 0"/></svg>