<svg id="Capa_1" enable-background="new 0 0 512 512" height="512" viewBox="0 0 512 512" width="512" xmlns="http://www.w3.org/2000/svg"><g><path d="m241 111h30v30h-30z"/><path d="m241 371h30v30h-30z"/><path d="m0 208.5v95h61c20.95 0 38.763-13.639 45.059-32.5h37.74c2.979 78.332 28.82 135.938 50.712 171.184 34.7 52.052 45.275 55.844 61.488 69.735 15.843-13.627 27.097-17.914 61.488-69.735 21.892-35.246 47.733-92.852 50.712-171.184h37.74c6.296 18.861 24.109 32.5 45.059 32.5h61v-95h-61c-20.95 0-38.763 13.639-45.059 32.5h-37.74c-2.979-78.332-28.82-135.938-50.712-171.184-34.698-52.052-45.274-55.844-61.487-69.735-15.843 13.627-27.097 17.914-61.488 69.735-21.892 35.246-47.733 92.852-50.712 171.184h-37.74c-6.297-18.861-24.11-32.5-45.06-32.5zm338.179 32.5h-34.679v-17.5c0-26.191-21.309-47.5-47.5-47.5s-47.5 21.309-47.5 47.5v17.5h-34.679c4.587-112.428 59.804-178.935 82.173-201.402 46.31 50.39 75.709 104.852 82.185 201.402zm-64.679 47.5c0 9.649-7.851 17.5-17.5 17.5s-17.5-7.851-17.5-17.5v-17.5h35zm-35-47.5v-17.5c0-9.649 7.851-17.5 17.5-17.5s17.5 7.851 17.5 17.5v17.5zm195 15c0-9.649 7.851-17.5 17.5-17.5h31v35h-31c-9.649 0-17.5-7.851-17.5-17.5zm-259.679 15h34.679v17.5c0 26.191 21.309 47.5 47.5 47.5s47.5-21.309 47.5-47.5v-17.5h34.679c-4.587 112.428-59.804 178.935-82.173 201.402-46.31-50.39-75.709-104.852-82.185-201.402zm-143.821-32.5h31c9.649 0 17.5 7.851 17.5 17.5s-7.851 17.5-17.5 17.5h-31z"/></g></svg>