<svg id="Layer_3" height="512" viewBox="0 0 64 64" width="512" xmlns="http://www.w3.org/2000/svg" data-name="Layer 3"><path d="m62 24a1 1 0 0 0 1-1v-8a1 1 0 0 0 -1-1h-60a1 1 0 0 0 -1 1v8a1 1 0 0 0 1 1 2 2 0 0 1 0 4 1 1 0 0 0 -1 1v6a1 1 0 0 0 1 1 2 2 0 0 1 0 4 1 1 0 0 0 -1 1v8a1 1 0 0 0 1 1h60a1 1 0 0 0 1-1v-8a1 1 0 0 0 -1-1 2 2 0 0 1 0-4 1 1 0 0 0 1-1v-6a1 1 0 0 0 -1-1 2 2 0 0 1 0-4zm-1 5.874v4.252a4 4 0 0 0 0 7.748v6.126h-9v-3h-2v3h-47v-6.126a4 4 0 0 0 0-7.748v-4.252a4 4 0 0 0 0-7.748v-6.126h47v3h2v-3h9v6.126a4 4 0 0 0 0 7.748z"/><path d="m33 18h-24a1 1 0 0 0 -1 1v26a1 1 0 0 0 1 1h24a1 1 0 0 0 1-1v-26a1 1 0 0 0 -1-1zm-1 26h-22v-24h22z"/><path d="m14 37.816v1.184a3 3 0 0 0 6 0v-1h2v1a3 3 0 0 0 6 0v-1.184a3 3 0 0 0 2-2.816v-10a3 3 0 0 0 -3-3h-12a3 3 0 0 0 -3 3v10a3 3 0 0 0 2 2.816zm4 1.184a1 1 0 0 1 -2 0v-1h2zm7 1a1 1 0 0 1 -1-1v-1h2v1a1 1 0 0 1 -1 1zm2-4h-12a1 1 0 0 1 -1-1v-1h14v1a1 1 0 0 1 -1 1zm-7-4h-2v-1a1 1 0 0 1 2 0zm-5-8h12a1 1 0 0 1 1 1v7h-6v-1a3 3 0 0 0 -6 0v1h-2v-7a1 1 0 0 1 1-1z"/><path d="m50 21h2v4h-2z"/><path d="m50 27h2v4h-2z"/><path d="m50 33h2v4h-2z"/><path d="m50 39h2v4h-2z"/><path d="m47 18h-10a1 1 0 0 0 -1 1v6a1 1 0 0 0 1 1h10a1 1 0 0 0 1-1v-6a1 1 0 0 0 -1-1zm-1 6h-8v-4h8z"/><path d="m36 28h12v2h-12z"/><path d="m47 32h-10a1 1 0 0 0 -1 1v6a1 1 0 0 0 1 1h10a1 1 0 0 0 1-1v-6a1 1 0 0 0 -1-1zm-1 6h-8v-4h8z"/><path d="m36 42h12v2h-12z"/><circle cx="56" cy="20" r="2"/><circle cx="56" cy="44" r="2"/><circle cx="56" cy="32" r="2"/></svg>