<svg height="512pt" viewBox="0 0 512 512" width="512pt" xmlns="http://www.w3.org/2000/svg"><path d="m449.027344 344.972656c-37.050782-37.050781-85.246094-58.90625-137.027344-62.449218v-267.523438c0-8.285156-6.714844-15-15-15s-15 6.714844-15 15v7.390625c-39.039062 19.308594-79.257812 7.253906-121.6875-5.476563-23.875-7.164062-48.566406-14.570312-73.691406-16.453124-29.550782-2.214844-55.503906 3.65625-79.339844 17.957031-4.515625 2.710937-7.28125 7.59375-7.28125 12.863281v141c0 5.402344 2.90625 10.390625 7.609375 13.054688 4.703125 2.660156 10.476563 2.589843 15.109375-.191407 41.316406-24.792969 83.894531-12.019531 128.96875 1.503907 23.875 7.164062 48.566406 14.570312 73.691406 16.453124 4.035156.304688 8.003906.453126 11.910156.453126 15.867188 0 30.683594-2.519532 44.710938-7.585938v86.554688c-51.78125 3.542968-99.976562 25.398437-137.027344 62.449218-40.609375 40.605469-62.972656 94.597656-62.972656 152.027344 0 8.285156 6.714844 15 15 15h400c8.285156 0 15-6.714844 15-15 0-57.429688-22.363281-111.421875-62.972656-152.027344zm-245.351563 24.847656c-10.664062-2.992187-20.765625-6.492187-30.128906-10.476562 15.460937-13.878906 33.261719-25.195312 52.734375-33.28125-4.753906 6.859375-9.238281 14.46875-13.410156 22.808594-3.316406 6.640625-6.382813 13.640625-9.195313 20.949218zm36.03125-7.535156c12.066407-24.136718 26.933594-40.492187 42.292969-47.054687v66.472656c-16.742188-.65625-33.121094-2.410156-48.726562-5.171875 2.011718-4.929688 4.15625-9.6875 6.433593-14.246094zm72.292969-47.054687c15.359375 6.5625 30.226562 22.917969 42.292969 47.054687 2.277343 4.558594 4.421875 9.316406 6.433593 14.246094-15.605468 2.761719-31.984374 4.515625-48.726562 5.171875zm69.128906 33.640625c-4.171875-8.34375-8.65625-15.949219-13.410156-22.808594 19.472656 8.085938 37.273438 19.402344 52.734375 33.28125-9.363281 3.984375-19.464844 7.484375-30.128906 10.476562-2.8125-7.308593-5.878907-14.308593-9.195313-20.949218zm-220.816406-190.957032c-23.875-7.164062-48.566406-14.570312-73.691406-16.453124-4.035156-.304688-8.003906-.453126-11.910156-.453126-15.863282 0-30.683594 2.503907-44.710938 7.566407v-108.414063c39.039062-19.304687 79.257812-7.242187 121.691406 5.488282 23.875 7.164062 48.5625 14.570312 73.6875 16.453124 20.429688 1.535157 39.144532-.800781 56.621094-7.113281v108.410157c-39.039062 19.3125-79.257812 7.246093-121.6875-5.484376zm-8.464844 224.523438c13.019532 6.304688 27.289063 11.664062 42.535156 16.019531-6.921874 25.714844-11.0625 54.058594-12.113281 83.542969h-69.667969c3.015626-37.414062 17.21875-71.71875 39.246094-99.5625zm71.726563 22.902344c18.578125 3.511718 38.1875 5.675781 58.425781 6.390625v70.269531h-69.714844c1.035156-27.234375 4.898438-53.25 11.289063-76.660156zm88.425781 76.660156v-70.273438c20.238281-.714843 39.847656-2.875 58.425781-6.386718 6.390625 23.410156 10.253907 49.425781 11.289063 76.660156zm99.730469 0c-1.050781-29.480469-5.191407-57.828125-12.113281-83.542969 15.246093-4.355469 29.515624-9.714843 42.535156-16.019531 22.027344 27.84375 36.230468 62.148438 39.246094 99.5625zm0 0"/></svg>